# xmcd CD database file
#
# Track frame offsets:
#	150
#	31318
#	60458
#	86363
#	114614
#	142555
#
# Disc length: 2349 seconds
#
# Revision: 0
# Processed by: cddbd v1.5.2PL0 Copyright (c) Steve Scherf et al.
# Submitted via: CDex 1.70beta2
#
DISCID=3e092b06
DTITLE=Oleg Pissarenko - Kes Sa Oled - Who Are You
DYEAR=2014
DGENRE=Jazz
TTITLE0=Kes Sa Oled - Who Are You
TTITLE1=WM
TTITLE2=Loodu - Creature
TTITLE3=Eriline tavaline - Special Usual
TTITLE4=Edasi - Forward
TTITLE5=Kölk - Everything
EXTD=YEAR: 2014
EXTT0=
EXTT1=
EXTT2=
EXTT3=
EXTT4=
EXTT5=
PLAYORDER=
